# Blender v3.5.1 OBJ File: 'boxbuilding.blend'
# www.blender.org
mtllib boxbuilding.mtl
o Cube
v 2.500000 10.000000 -2.500000
v 2.500000 0.000000 -2.500000
v 2.500000 10.000000 2.500000
v 2.500000 0.000000 2.500000
v -2.500000 10.000000 -2.500000
v -2.500000 0.000000 -2.500000
v -2.500000 10.000000 2.500000
v -2.500000 0.000000 2.500000
vt 0.000000 0.000000
vt 0.000000 0.000000
vt 0.000000 0.000000
vt 0.000000 0.000000
vt 1.000000 1.000000
vt 0.000000 1.000000
vt 1.000000 0.000000
vt 1.000000 1.000000
vt 0.000000 1.000000
vt 1.000000 0.000000
vt 0.000000 0.000000
vt 0.000000 0.000000
vt 0.000000 0.000000
vt 0.000000 0.000000
vt 1.000000 1.000000
vt 0.000000 1.000000
vt 1.000000 0.000000
vt 1.000000 1.000000
vt 0.000000 1.000000
vt 1.000000 0.000000
vn 0.0000 1.0000 0.0000
vn 0.0000 0.0000 1.0000
vn -1.0000 0.0000 0.0000
vn 0.0000 -1.0000 0.0000
vn 1.0000 0.0000 0.0000
vn 0.0000 0.0000 -1.0000
usemtl Material
s off
f 1/1/1 5/2/1 7/3/1 3/4/1
f 4/5/2 3/6/2 7/3/2 8/7/2
f 8/8/3 7/9/3 5/2/3 6/10/3
f 6/11/4 2/12/4 4/13/4 8/14/4
f 2/15/5 1/16/5 3/4/5 4/17/5
f 6/18/6 5/19/6 1/1/6 2/20/6
